<svg xmlns="http://www.w3.org/2000/svg" width="40" height="31.895" viewBox="0 0 40 31.895">
  <path id="Icon_awesome-cogs" data-name="Icon awesome-cogs" d="M32.009,11.939l-.513.894a.773.773,0,0,1-.944.338,6.907,6.907,0,0,1-2.006-1.163.776.776,0,0,1-.175-.981l.513-.894A5.4,5.4,0,0,1,27.89,8.42H26.858a.772.772,0,0,1-.763-.644,7.042,7.042,0,0,1,0-2.319.777.777,0,0,1,.763-.65H27.89a5.4,5.4,0,0,1,.994-1.713L28.371,2.2a.769.769,0,0,1,.175-.981A6.99,6.99,0,0,1,30.552.057.773.773,0,0,1,31.5.395l.513.894a5.554,5.554,0,0,1,1.981,0L34.5.395a.773.773,0,0,1,.944-.338A6.907,6.907,0,0,1,37.453,1.22a.776.776,0,0,1,.175.981l-.513.894a5.4,5.4,0,0,1,.994,1.713h1.031a.772.772,0,0,1,.763.644,7.042,7.042,0,0,1,0,2.319.777.777,0,0,1-.763.65H38.109a5.4,5.4,0,0,1-.994,1.713l.513.894a.769.769,0,0,1-.175.981,6.99,6.99,0,0,1-2.006,1.163.773.773,0,0,1-.944-.338l-.513-.894a5.554,5.554,0,0,1-1.981,0Zm-.656-3.675a2.335,2.335,0,0,0,3.3-3.3A2.335,2.335,0,0,0,31.353,8.264Zm-7.207,9.62,2.106,1.05a1.5,1.5,0,0,1,.656,1.819,14.756,14.756,0,0,1-2.663,4.113,1.494,1.494,0,0,1-1.894.331l-1.819-1.05A10.737,10.737,0,0,1,17.1,26.128v2.1A1.5,1.5,0,0,1,15.87,29.7a14.056,14.056,0,0,1-4.744,0,1.5,1.5,0,0,1-1.25-1.475v-2.1a10.855,10.855,0,0,1-3.432-1.981L4.625,25.19a1.5,1.5,0,0,1-1.894-.331A14.734,14.734,0,0,1,.094,20.753,1.508,1.508,0,0,1,.75,18.934l2.081-1.05a10.828,10.828,0,0,1,0-3.963L.75,12.864a1.49,1.49,0,0,1-.656-1.813A14.675,14.675,0,0,1,2.731,6.939a1.494,1.494,0,0,1,1.894-.331l1.819,1.05A10.737,10.737,0,0,1,9.876,5.676V3.57A1.489,1.489,0,0,1,11.1,2.1a14.255,14.255,0,0,1,4.75-.006A1.5,1.5,0,0,1,17.1,3.57v2.1a10.855,10.855,0,0,1,3.432,1.981L22.352,6.6a1.5,1.5,0,0,1,1.894.331,14.655,14.655,0,0,1,2.631,4.113,1.494,1.494,0,0,1-.625,1.819l-2.106,1.05A10.862,10.862,0,0,1,24.146,17.884ZM16.8,19.2C20.5,14.39,15,8.9,10.188,12.6,6.488,17.409,11.982,22.9,16.8,19.2Zm15.214,11.42-.513.894a.773.773,0,0,1-.944.338,6.907,6.907,0,0,1-2.006-1.163.776.776,0,0,1-.175-.981l.513-.894A5.4,5.4,0,0,1,27.89,27.1H26.858a.772.772,0,0,1-.763-.644,7.042,7.042,0,0,1,0-2.319.777.777,0,0,1,.763-.65H27.89a5.4,5.4,0,0,1,.994-1.713l-.513-.894a.769.769,0,0,1,.175-.981,6.99,6.99,0,0,1,2.006-1.163.773.773,0,0,1,.944.338l.513.894a5.554,5.554,0,0,1,1.981,0l.513-.894a.773.773,0,0,1,.944-.338A6.907,6.907,0,0,1,37.453,19.9a.776.776,0,0,1,.175.981l-.513.894a5.4,5.4,0,0,1,.994,1.713h1.031a.772.772,0,0,1,.763.644,7.042,7.042,0,0,1,0,2.319.777.777,0,0,1-.763.65H38.109a5.4,5.4,0,0,1-.994,1.713l.513.894a.769.769,0,0,1-.175.981,6.99,6.99,0,0,1-2.006,1.163.773.773,0,0,1-.944-.338l-.513-.894A5.554,5.554,0,0,1,32.009,30.622Zm-.656-3.682a2.335,2.335,0,0,0,3.3-3.3A2.335,2.335,0,0,0,31.353,26.941Z" transform="translate(0.001 -0.008)" fill="#fff"/>
</svg>
