<svg xmlns="http://www.w3.org/2000/svg" xmlns:xlink="http://www.w3.org/1999/xlink" width="75" height="75" viewBox="0 0 75 75">
  <defs>
    <clipPath id="clip-path">
      <rect id="placeholder" width="75" height="75" rx="12" transform="translate(1207 1147.613)" fill="#fff" stroke="#707070" stroke-width="1"/>
    </clipPath>
  </defs>
  <g id="Group_97" data-name="Group 97" transform="translate(-1207 -1147.613)">
    <g id="placeholder-2" data-name="placeholder" transform="translate(1207 1147.613)" fill="#fff" stroke="#707070" stroke-width="1">
      <rect width="75" height="75" rx="12" stroke="none"/>
      <rect x="0.5" y="0.5" width="74" height="74" rx="11.5" fill="none"/>
    </g>
    <g id="Mask_Group_1" data-name="Mask Group 1" clip-path="url(#clip-path)">
      <g id="Group_91" data-name="Group 91" transform="translate(1074.922 1127.882)">
        <g id="_3" data-name="3" transform="translate(136.728 29.663)">
          <g id="Group_90" data-name="Group 90">
            <g id="Group_87" data-name="Group 87" transform="translate(19.821)">
              <path id="Path_1956" data-name="Path 1956" d="M164.35,65.113l-.037.736L164,71.935l8.6,7.828,3.008-2.751,4.879-4.461.379-7.483Z" transform="translate(-159.175 -33.072)" fill="#cca692"/>
              <path id="Path_1957" data-name="Path 1957" d="M173.359,39.559a12.069,12.069,0,0,0-7.3-.324c-2.237.679-4.65,2.141-5.073,4.454-.3,1.661.435,3.337.164,5.029-.071.445-.193,1.452-.9.967-.295-.2-.107-.746-.42-.988-.695-.533-1.035.317-1.089.831a10.784,10.784,0,0,0,.775,5.556c.456.99,1.148,1.3,1.818,2.033.743.812.536,2.322.779,3.3a5.418,5.418,0,0,0,.814,1.821c.811,1.159,2.291,1.756,3.232,2.82a10.965,10.965,0,0,0,2.939,2.664,6.289,6.289,0,0,0,2.816.474c.129.012.259.023.389.033l1.46-28.761C173.623,39.5,173.487,39.524,173.359,39.559Z" transform="translate(-158.661 -30.544)" fill="#e2bba1"/>
              <path id="Path_1958" data-name="Path 1958" d="M188.355,51c0-.516-.254-1.4-1-.937-.336.208-.205.77-.518.94-.756.411-.774-.6-.8-1.054-.1-1.711.8-3.3.671-4.987-.186-2.344-2.44-4.043-4.6-4.944a12.055,12.055,0,0,0-6.9-.5l-1.46,28.761a5.553,5.553,0,0,0,2.461-.22A10.97,10.97,0,0,0,179.4,65.7c1.044-.962,2.576-1.407,3.5-2.478a5.436,5.436,0,0,0,.995-1.729c.34-.951.287-2.473,1.109-3.205.74-.662,1.459-.9,2.014-1.839A10.791,10.791,0,0,0,188.355,51Z" transform="translate(-160.113 -30.584)" fill="#f9cfb3"/>
              <path id="Path_1959" data-name="Path 1959" d="M159.927,45.517a6.448,6.448,0,0,1,.177,2.529c-.011.122-.032.308-.038.51l1.315.066A5.59,5.59,0,0,0,161.4,48a14.764,14.764,0,0,1,.122-1.863c.1-.89.02-1.815.165-2.7.382-2.321,2.721-3.853,5.235-3.9,1.846-.034,3.674.393,5.517.49,2.277.12,3.355-.8,5.2-1.7.5-.241.211-.289.708-.151a5.36,5.36,0,0,1,.995.672c1.658,1.012,4.679,2.085,5.073,4.061a16.814,16.814,0,0,1,.023,4.676,15.223,15.223,0,0,0-.277,2.184l1.026.052c.377-.925.88-2.182,1.013-2.672a22.571,22.571,0,0,0,.623-3.674c.523-2.969.854-5.823-1.1-8.434-2.092-2.8-5.314-4.535-7.087-4.424-.1.006-1.3.041-1.154.168a6.262,6.262,0,0,0-2.472-.828c-4.094-1.084-9.444.929-12.574,3.21-3.3,2.408-3,5.737-2.8,8.93A17.364,17.364,0,0,0,159.927,45.517Z" transform="translate(-158.744 -29.663)" fill="#5f5c54"/>
            </g>
            <g id="Group_88" data-name="Group 88" transform="translate(21.191 35.009)">
              <path id="Path_1960" data-name="Path 1960" d="M167.8,99.458h16.227c-.263-1.925-.564-3.845-.961-5.754-.839-4.036-1.546-7.235-4.519-10.085-1.268-1.215-3.8-5.2-5.6-4.847-1.5,0-5.756,6.076-6.176,7.376a4.709,4.709,0,0,0-.242,1.324,31.752,31.752,0,0,0,.606,3.787C167.452,93.977,167.621,96.72,167.8,99.458Z" transform="translate(-160.788 -69.398)" fill="#bad1dd"/>
              <path id="Path_1961" data-name="Path 1961" d="M171.309,96.842l1.125,2.566h6.122l.558-1.745a.308.308,0,0,0,0-.181l-3.477-12.706a1.79,1.79,0,0,1,.064-1.187l.856-1.948a.382.382,0,0,0-.095-.362l-1.252-1.347a4.147,4.147,0,0,1-.8-.983c-.129-.277-.475-.9-.8-.673-.287.2-.362.54-.537.818a5.663,5.663,0,0,1-.675.742l-.935,1.027a.327.327,0,0,0-.039.35l1.154,2.107a2,2,0,0,1,.247,1.209l-1.536,12.131A.334.334,0,0,0,171.309,96.842Z" transform="translate(-161.246 -69.348)" fill="#3d5872"/>
              <path id="Path_1962" data-name="Path 1962" d="M206.389,99.02c-.175-1.647-.812-8.691-1.146-10.8-.4-2.505-.92-5.11-2.5-7.091-1.743-2.179-2.481-3.273-5.243-3.664-3.047-.431-12.39-2.357-14.143-3.264-.962,4.051-1.635,8.291-2.585,12.356-.017.073-1.611,6.8-2.894,12.463Z" transform="translate(-161.881 -68.96)" fill="#728d96"/>
              <path id="Path_1963" data-name="Path 1963" d="M180.506,69.538l-7.648,7.5a.3.3,0,0,1-.43-.034l-8.689-8.6-3.562,6.441,6.868,11.746,5.388-8.9a.308.308,0,0,1,.525.042l6.955,10.056L182.7,75.615Z" transform="translate(-160.177 -68.402)" fill="#e4f4ff"/>
              <path id="Path_1964" data-name="Path 1964" d="M182.013,98.8a66.824,66.824,0,0,1,7.528-13.542l-4.407-2.3,4.857-2.19c-.283-.835-.924-2.143-1.783-3.917a12.744,12.744,0,0,0-4.975-4.975l-2.757,14.993-.968,3.727-1.854,8.2Z" transform="translate(-161.86 -68.736)" fill="#647c82"/>
            </g>
            <g id="Group_89" data-name="Group 89" transform="translate(0 37.101)">
              <path id="Path_1965" data-name="Path 1965" d="M170.456,98.949c-1.729-5.449-4.114-10.834-6.023-16.153l-3.343-9.333s-.089.028-.255.072a36.78,36.78,0,0,1-4.236,1.719c-3.943,1.079-8.026,2.818-12.025,3.467-6.934,1.127-7.72,12.662-7.847,20.228Z" transform="translate(-136.728 -70.981)" fill="#647c82"/>
              <path id="Path_1966" data-name="Path 1966" d="M157.032,85.938c3.274,3.992,6.6,7.585,9.7,12.746h5.783l-3.506-9.008-2.781-7.147L162.39,70.717c-.606.16-6.867,6.784-7.009,7.551l7,2.817Z" transform="translate(-138.524 -70.717)" fill="#728d96"/>
            </g>
          </g>
        </g>
        <g id="_9" data-name="9" transform="translate(156.966 47.071)">
          <path id="Path_1967" data-name="Path 1967" d="M186.866,50.357l-.332-.958s-4.2-.175-6.239-.213c-2-.037-4.4.46-5.437,1.641l-.027-.052a3.009,3.009,0,0,1-2.917-.055l-.028.052c-.992-1.219-3.376-1.806-5.372-1.843-2.037-.038-7.041.42-7.041.42l-.352,1.276,2.016,1.146a2.6,2.6,0,0,0-.022.526c.16,2.628,2.783,4.051,5.29,4.1.069,0,.136,0,.205,0a6.464,6.464,0,0,0,1.377-.164,5.969,5.969,0,0,0,4.191-3.476,1.972,1.972,0,0,0,.167-.732,3.6,3.6,0,0,0,2,.037,1.97,1.97,0,0,0,.139.738,5.973,5.973,0,0,0,4.057,3.63,6.541,6.541,0,0,0,1.371.215l.206.007c2.507.047,5.181-1.277,5.439-3.9a2.7,2.7,0,0,0,0-.527Zm-15.71,2a4.9,4.9,0,0,1-3.428,2.854,5.35,5.35,0,0,1-1.131.134h-.17c-2-.038-4.084-1.116-4.2-3.1a1.513,1.513,0,0,1,.464-1.23,5.534,5.534,0,0,1,3.81-1.025c2.076.038,4,.676,4.583,1.515A.823.823,0,0,1,171.156,52.353Zm8.987,3.244-.171-.005a5.419,5.419,0,0,1-1.125-.176,4.9,4.9,0,0,1-3.318-2.98.82.82,0,0,1,.109-.852c.61-.817,2.559-1.382,4.637-1.342a5.531,5.531,0,0,1,3.768,1.166,1.511,1.511,0,0,1,.418,1.247C184.265,54.636,182.14,55.634,180.143,55.6Z" transform="translate(-159.122 -48.926)" fill="#020202"/>
        </g>
      </g>
    </g>
  </g>
</svg>
