<svg xmlns="http://www.w3.org/2000/svg" width="30.289" height="33.164" viewBox="0 0 30.289 33.164">
  <g id="Icon_feather-package" data-name="Icon feather-package" transform="translate(-2.856 -1.456)">
    <path id="Path_1988" data-name="Path 1988" d="M24.75,14.1,11.25,6.315" fill="none" stroke="#fff" stroke-linecap="round" stroke-linejoin="round" stroke-width="3"/>
    <path id="Path_1989" data-name="Path 1989" d="M31.5,24V12A3,3,0,0,0,30,9.4l-10.5-6a3,3,0,0,0-3,0L6,9.4A3,3,0,0,0,4.5,12V24A3,3,0,0,0,6,26.595l10.5,6a3,3,0,0,0,3,0l10.5-6A3,3,0,0,0,31.5,24Z" fill="none" stroke="#fff" stroke-linecap="round" stroke-linejoin="round" stroke-width="3"/>
    <path id="Path_1990" data-name="Path 1990" d="M4.905,10.44,18,18.015,31.095,10.44" fill="none" stroke="#fff" stroke-linecap="round" stroke-linejoin="round" stroke-width="3"/>
    <path id="Path_1991" data-name="Path 1991" d="M18,33.12V18" fill="none" stroke="#fff" stroke-linecap="round" stroke-linejoin="round" stroke-width="3"/>
  </g>
</svg>
