<svg xmlns="http://www.w3.org/2000/svg" width="36.639" height="24.76" viewBox="0 0 36.639 24.76">
  <path id="Icon_awesome-newspaper" data-name="Icon awesome-newspaper" d="M34.154,4.5H5.445A1.485,1.485,0,0,0,3.96,5.985V6.48H1.485A1.485,1.485,0,0,0,0,7.965v16.83A3.465,3.465,0,0,0,3.465,28.26h29.2a2.97,2.97,0,0,0,2.97-2.97V5.985A1.485,1.485,0,0,0,34.154,4.5ZM3.465,25.29a.5.5,0,0,1-.495-.495V9.45h.99V24.795A.5.5,0,0,1,3.465,25.29Zm14.6-.99h-9.4a.743.743,0,0,1-.742-.742v-.495a.743.743,0,0,1,.742-.742h9.4a.743.743,0,0,1,.742.742v.495A.743.743,0,0,1,18.067,24.3Zm12.87,0h-9.4a.743.743,0,0,1-.742-.742v-.495a.743.743,0,0,1,.742-.742h9.4a.743.743,0,0,1,.742.742v.495A.743.743,0,0,1,30.937,24.3Zm-12.87-5.94h-9.4a.743.743,0,0,1-.742-.742v-.495a.743.743,0,0,1,.742-.742h9.4a.743.743,0,0,1,.742.742v.495A.743.743,0,0,1,18.067,18.36Zm12.87,0h-9.4a.743.743,0,0,1-.742-.742v-.495a.743.743,0,0,1,.742-.742h9.4a.743.743,0,0,1,.742.742v.495A.743.743,0,0,1,30.937,18.36Zm0-5.94H8.662a.743.743,0,0,1-.742-.742V9.2a.743.743,0,0,1,.742-.742H30.937a.743.743,0,0,1,.742.742v2.475A.743.743,0,0,1,30.937,12.42Z" transform="translate(0.5 -4)" fill="#fff" stroke="#002c6c" stroke-width="1"/>
</svg>
